<svg fill="none" height="40" viewBox="0 0 40 40" width="40" xmlns="http://www.w3.org/2000/svg"><path d="m40 20c0-11.04569-8.9543-20-20-20-11.04569 0-20 8.95431-20 20 0 11.0457 8.95431 20 20 20 11.0457 0 20-8.9543 20-20z" fill="#3a5790"/><path d="m21.3641 16.9232v-1.505c0-.226.0103-.401.0312-.5246.0208-.1238.0683-.2455.1419-.3657.0735-.1202.1925-.2031.3568-.2491.1646-.046.3833-.0689.6563-.0689h1.4904v-3.0099h-2.3827c-1.3787 0-2.3689.3302-2.9707.9908-.6018.6607-.9027 1.6339-.9027 2.92v1.8123h-1.7846v3.0102h1.7845v8.7333h3.5796v-8.7333h2.3825l.3149-3.0101z" fill="#fff"/></svg>