<svg fill="none" height="40" viewBox="0 0 40 40" width="40" xmlns="http://www.w3.org/2000/svg"><path d="m40 20c0-11.04569-8.9543-20-20-20-11.04569 0-20 8.95431-20 20 0 11.0457 8.95431 20 20 20 11.0457 0 20-8.9543 20-20z" fill="#ec8224"/><path clip-rule="evenodd" d="m22.0512 25.4388c1.2465-.2903 2.4362-.7937 3.5186-1.4893.8298-.5336 1.0792-1.6538.5572-2.502-.521-.8483-1.6162-1.1042-2.4461-.5717l-.002.0012c-2.4825 1.5954-5.6777 1.5943-8.1583 0-.8288-.5336-1.9239-.2794-2.446.5678-.0006.0009-.0011.0018-.0017.0027-.5222.848-.2731 1.9681.5563 2.502 1.0823.6953 2.2717 1.1988 3.518 1.4893l-3.3874 3.4631c-.6933.7089-.6931 1.8579.0004 2.5665.6934.7087 1.8176.7085 2.5108-.0004l3.3281-3.4025 3.3301 3.4028c.6917.7082 1.8142.709 2.507.0019l.0019-.0019c.6931-.7064.6948-1.8533.0038-2.5619-.0013-.0013-.0025-.0026-.0038-.0039zm-2.4516-5.0524c3.342 0 6.0598-2.7772 6.0598-6.1917 0-3.4164-2.7175-6.1947-6.0598-6.1947-3.3417 0-6.0597 2.7786-6.0597 6.1947 0 3.4145 2.718 6.1917 6.0597 6.1917zm0-8.7563c1.3836 0 2.509 1.1503 2.509 2.5646 0 1.413-1.1257 2.5633-2.509 2.5633-1.3826 0-2.5083-1.1503-2.5083-2.5633-.0003-1.4145 1.126-2.5646 2.5083-2.5646z" fill="#fff" fill-rule="evenodd"/></svg>