<svg fill="none" height="40" viewBox="0 0 40 40" width="40" xmlns="http://www.w3.org/2000/svg"><g clip-rule="evenodd" fill-rule="evenodd"><path d="m20 40c11.0457 0 20-8.9543 20-20s-8.9543-20-20-20-20 8.9543-20 20 8.9543 20 20 20z" fill="#4dc8f1"/><path d="m27.9527 16.7356c.259 5.3261-4.0444 11.2644-11.663 11.2644-2.317 0-4.4739-.6272-6.2897-1.7016 2.1765.2367 4.3496-.3202 6.0745-1.5682-1.7952-.0304-3.3107-1.1252-3.8326-2.6295.6428.1134 1.2752.0803 1.8526-.0644-1.9735-.3665-3.3352-2.0068-3.291-3.761.5533.2834 1.1863.454 1.859.473-1.8276-1.1265-2.345-3.3533-1.2698-5.0553 2.0232 2.2911 5.0464 3.7986 8.4569 3.9569-.598-2.3692 1.349-4.6499 3.9973-4.6499 1.1804 0 2.2468.4594 2.9947 1.1955.9347-.1696 1.8129-.4848 2.6055-.9189-.3061.8844-.9568 1.6268-1.804 2.0948.83-.0911 1.6207-.2948 2.3569-.5959-.5499.7596-1.2458 1.4263-2.0473 1.9601z" fill="#fff"/></g></svg>