<svg fill="none" height="40" viewBox="0 0 40 40" width="40" xmlns="http://www.w3.org/2000/svg"><path d="m40 20c0-11.04569-8.9543-20-20-20-11.04569 0-20 8.95431-20 20 0 11.0457 8.95431 20 20 20 11.0457 0 20-8.9543 20-20z" fill="#4c77a6"/><path d="m20.7991 25.2192c.0516-.7942.4097-2.0303 1.3045-1.3562.5407.4084.9697 1 1.4555 1.5194.4742.5058 1.04.9477 2.0942.9206.6252-.0161 2.4207.0433 2.8884-.1271 1.4135-.5129-1.091-2.8567-1.7026-3.3812-.2574-.2207-.5458-.5349-.7664-.7684-.2729-.2884-.4039-.5807-.1871-1.0329l.9477-1.3329c.2807-.3065 1.3187-1.791 1.5697-2.1975.3613-.5858 1.1026-1.7374.1471-1.9219-.5374-.1039-2.282-.0071-2.9458-.0026-1.3078.0084-1.042-.1361-1.6871 1.3536-.4297.9909-1.7561 3.3264-2.4594 3.5929-1.3038.4942-.2838-4.2349-.8335-5.0529-.3336-.4962-1.8794-.4342-2.6026-.4245-.84.0103-2.0013.0548-2.2465.7477.0749.0639-.0071.0206.1381.08.1045.0426.2678.0523.4452.1471.1574.0832.3006.2297.3826.3613.3961.6335.3483 3.3026.0206 3.9497-.6136 1.209-2.4058-2.1878-2.7129-2.7929-.4387-.8639-.611-1.7039-1.1077-1.9187-.36-.1549-2.4007-.0684-2.94973-.0594-.50258.0077-.93613.0871-.74516.6826.09613.3.32452.7226.46258 1.0251.85101 1.8678 2.18131 4.1607 3.35351 5.7142 1.3233 1.7529 3.2794 3.3058 5.7523 3.3258 1.7761.0142 1.9103.0929 1.9845-1.0509z" fill="#fff"/></svg>