<?xml version="1.0" standalone="no"?>
<!DOCTYPE svg PUBLIC "-//W3C//DTD SVG 20010904//EN"
 "http://www.w3.org/TR/2001/REC-SVG-20010904/DTD/svg10.dtd">
<svg version="1.0" xmlns="http://www.w3.org/2000/svg"
 width="1152.000000pt" height="1152.000000pt" viewBox="0 0 1152.000000 1152.000000"
 preserveAspectRatio="xMidYMid meet">
<metadata>
Created by potrace 1.11, written by Peter Selinger 2001-2013
</metadata>
<g transform="translate(0.000000,1152.000000) scale(0.100000,-0.100000)"
fill="#000000" stroke="none">
<path d="M5450 11504 c-545 -65 -1024 -288 -1407 -658 -444 -427 -695 -968
-738 -1588 l-7 -98 -898 0 -899 0 -5 -42 c-3 -24 -15 -234 -26 -468 -18 -366
-52 -996 -150 -2800 -35 -649 -169 -2908 -195 -3300 -71 -1059 -106 -1497
-141 -1780 -54 -431 2 -643 195 -737 l56 -28 4460 -3 c4025 -2 4465 -1 4513
14 170 49 255 185 268 434 5 80 0 157 -20 325 -51 437 -83 856 -176 2335 -72
1147 -185 3159 -270 4785 -33 638 -63 1184 -66 1213 l-5 52 -899 0 -898 0 -7
78 c-44 542 -181 918 -482 1325 -94 126 -335 368 -465 465 -500 374 -1134 548
-1738 476z m490 -539 c399 -46 763 -219 1062 -503 327 -312 540 -763 565
-1199 l6 -103 -1851 0 -1852 0 0 63 c1 273 122 647 297 912 393 597 1068 913
1773 830z m-1190 -4845 c575 -292 1146 -584 1270 -647 124 -63 650 -331 1170
-596 531 -270 959 -493 977 -510 17 -16 34 -40 38 -54 8 -32 -20 -88 -56 -114
-32 -23 32 -18 -914 -74 -933 -55 -1430 -87 -1433 -90 -3 -3 -60 -134 -439
-1015 -124 -289 -265 -616 -313 -727 -52 -120 -97 -211 -111 -224 -70 -61
-164 -73 -207 -26 -11 12 -29 58 -40 102 -27 107 -78 297 -287 1080 -97 363
-194 725 -215 805 -39 148 -105 395 -235 880 -41 151 -110 412 -155 580 -45
168 -115 429 -155 580 -143 534 -130 477 -112 516 24 50 71 76 127 71 35 -4
279 -124 1090 -537z"/>
</g>
</svg>
