<svg width="40" height="40" viewBox="0 0 40 40" fill="none" xmlns="http://www.w3.org/2000/svg">
<path d="M40 20C40 8.95431 31.0457 0 20 0C8.95431 0 0 8.95431 0 20C0 31.0457 8.95431 40 20 40C31.0457 40 40 31.0457 40 20Z" fill="#3A5790"/>
<path d="M21.3641 16.9232V15.4182C21.3641 15.1922 21.3744 15.0172 21.3953 14.8936C21.4161 14.7698 21.4636 14.6481 21.5372 14.5279C21.6107 14.4077 21.7297 14.3248 21.894 14.2788C22.0586 14.2328 22.2773 14.2099 22.5503 14.2099H24.0407V11.2H21.658C20.2793 11.2 19.2891 11.5302 18.6873 12.1908C18.0855 12.8515 17.7846 13.8247 17.7846 15.1108V16.9231H16V19.9333H17.7845V28.6666H21.3641V19.9333H23.7466L24.0615 16.9232H21.3641Z" fill="white"/>
</svg>
