<svg width="40" height="40" viewBox="0 0 40 40" fill="none" xmlns="http://www.w3.org/2000/svg">
<path d="M40 20C40 8.95431 31.0457 0 20 0C8.95431 0 0 8.95431 0 20C0 31.0457 8.95431 40 20 40C31.0457 40 40 31.0457 40 20Z" fill="#EC8224"/>
<path fill-rule="evenodd" clip-rule="evenodd" d="M22.0512 25.4388C23.2977 25.1485 24.4874 24.6451 25.5698 23.9495C26.3996 23.4159 26.649 22.2957 26.127 21.4475C25.606 20.5992 24.5108 20.3433 23.6809 20.8758L23.6789 20.877C21.1964 22.4724 18.0012 22.4713 15.5206 20.877C14.6918 20.3434 13.5967 20.5976 13.0746 21.4448C13.074 21.4457 13.0735 21.4466 13.0729 21.4475C12.5507 22.2955 12.7998 23.4156 13.6292 23.9495C14.7115 24.6448 15.9009 25.1483 17.1472 25.4388L13.7598 28.9019C13.0665 29.6108 13.0667 30.7598 13.7602 31.4684C14.4536 32.1771 15.5778 32.1769 16.271 31.468L19.5991 28.0655L22.9292 31.4683C23.6209 32.1765 24.7434 32.1773 25.4362 31.4702L25.4381 31.4683C26.1312 30.7619 26.1329 29.615 25.4419 28.9064C25.4406 28.9051 25.4394 28.9038 25.4381 28.9025L22.0512 25.4388ZM19.5996 20.3864C22.9416 20.3864 25.6594 17.6092 25.6594 14.1947C25.6594 10.7783 22.9419 8 19.5996 8C16.2579 8 13.5399 10.7786 13.5399 14.1947C13.5399 17.6092 16.2579 20.3864 19.5996 20.3864ZM19.5996 11.6301C20.9832 11.6301 22.1086 12.7804 22.1086 14.1947C22.1086 15.6077 20.9829 16.758 19.5996 16.758C18.217 16.758 17.0913 15.6077 17.0913 14.1947C17.091 12.7802 18.2173 11.6301 19.5996 11.6301Z" fill="white"/>
</svg>
