<svg width="40" height="40" viewBox="0 0 40 40" fill="none" xmlns="http://www.w3.org/2000/svg">
<path fill-rule="evenodd" clip-rule="evenodd" d="M20 40C31.0457 40 40 31.0457 40 20C40 8.9543 31.0457 0 20 0C8.9543 0 0 8.9543 0 20C0 31.0457 8.9543 40 20 40Z" fill="#4DC8F1"/>
<path fill-rule="evenodd" clip-rule="evenodd" d="M27.9527 16.7356C28.2117 22.0617 23.9083 28 16.2897 28C13.9727 28 11.8158 27.3728 10 26.2984C12.1765 26.5351 14.3496 25.9782 16.0745 24.7302C14.2793 24.6998 12.7638 23.605 12.2419 22.1007C12.8847 22.2141 13.5171 22.181 14.0945 22.0363C12.121 21.6698 10.7593 20.0295 10.8035 18.2753C11.3568 18.5587 11.9898 18.7293 12.6625 18.7483C10.8349 17.6218 10.3175 15.395 11.3927 13.693C13.4159 15.9841 16.4391 17.4916 19.8496 17.6499C19.2516 15.2807 21.1986 13 23.8469 13C25.0273 13 26.0937 13.4594 26.8416 14.1955C27.7763 14.0259 28.6545 13.7107 29.4471 13.2766C29.141 14.161 28.4903 14.9034 27.6431 15.3714C28.4731 15.2803 29.2638 15.0766 30 14.7755C29.4501 15.5351 28.7542 16.2018 27.9527 16.7356Z" fill="white"/>
</svg>
