<svg width="40" height="40" viewBox="0 0 40 40" fill="none" xmlns="http://www.w3.org/2000/svg">
<path d="M40 20C40 8.95431 31.0457 0 20 0C8.95431 0 0 8.95431 0 20C0 31.0457 8.95431 40 20 40C31.0457 40 40 31.0457 40 20Z" fill="#4C77A6"/>
<path d="M20.7991 25.2192C20.8507 24.425 21.2088 23.1889 22.1036 23.863C22.6443 24.2714 23.0733 24.863 23.5591 25.3824C24.0333 25.8882 24.5991 26.3301 25.6533 26.303C26.2785 26.2869 28.074 26.3463 28.5417 26.1759C29.9552 25.663 27.4507 23.3192 26.8391 22.7947C26.5817 22.574 26.2933 22.2598 26.0727 22.0263C25.7998 21.7379 25.6688 21.4456 25.8856 20.9934L26.8333 19.6605C27.114 19.354 28.152 17.8695 28.403 17.463C28.7643 16.8772 29.5056 15.7256 28.5501 15.5411C28.0127 15.4372 26.2681 15.534 25.6043 15.5385C24.2965 15.5469 24.5623 15.4024 23.9172 16.8921C23.4875 17.883 22.1611 20.2185 21.4578 20.485C20.154 20.9792 21.174 16.2501 20.6243 15.4321C20.2907 14.9359 18.7449 14.9979 18.0217 15.0076C17.1817 15.0179 16.0204 15.0624 15.7752 15.7553C15.8501 15.8192 15.7681 15.7759 15.9133 15.8353C16.0178 15.8779 16.1811 15.8876 16.3585 15.9824C16.5159 16.0656 16.6591 16.2121 16.7411 16.3437C17.1372 16.9772 17.0894 19.6463 16.7617 20.2934C16.1481 21.5024 14.3559 18.1056 14.0488 17.5005C13.6101 16.6366 13.4378 15.7966 12.9411 15.5818C12.5811 15.4269 10.5404 15.5134 9.99137 15.5224C9.48879 15.5301 9.05524 15.6095 9.24621 16.205C9.34234 16.505 9.57073 16.9276 9.70879 17.2301C10.5598 19.0979 11.8901 21.3908 13.0623 22.9443C14.3856 24.6972 16.3417 26.2501 18.8146 26.2701C20.5907 26.2843 20.7249 26.363 20.7991 25.2192Z" fill="white"/>
</svg>
